<svg width="305" height="60" viewBox="0 0 305 60" fill="none" xmlns="http://www.w3.org/2000/svg">
<path d="M17.76 13.4C21.888 13.4 25.12 14.376 27.456 16.328C29.792 18.248 30.96 20.952 30.96 24.44C30.96 27.928 29.792 30.648 27.456 32.6C25.12 34.52 21.888 35.48 17.76 35.48H7.344V47H6.384V13.4H17.76ZM17.856 34.568C21.76 34.568 24.752 33.688 26.832 31.928C28.944 30.168 30 27.672 30 24.44C30 21.208 28.944 18.712 26.832 16.952C24.752 15.192 21.76 14.312 17.856 14.312H7.344V34.568H17.856ZM71.9021 32.648L64.5581 39.32V47H63.5981V11.384H64.5581V38.168L82.0781 22.184H83.4701L72.6701 32.072L84.5741 47H83.3261L71.9021 32.648ZM110.1 34.568H88.0196C88.0196 36.808 88.5156 38.824 89.5076 40.616C90.4996 42.376 91.8596 43.752 93.5876 44.744C95.3476 45.736 97.3156 46.232 99.4916 46.232C101.188 46.232 102.772 45.912 104.244 45.272C105.748 44.6 106.98 43.64 107.94 42.392L108.612 43.064C107.524 44.376 106.18 45.384 104.58 46.088C102.98 46.792 101.284 47.144 99.4916 47.144C97.1236 47.144 94.9956 46.616 93.1076 45.56C91.2516 44.472 89.7796 42.968 88.6916 41.048C87.6356 39.128 87.1076 36.968 87.1076 34.568C87.1076 32.168 87.6036 30.024 88.5956 28.136C89.5876 26.216 90.9476 24.728 92.6756 23.672C94.4356 22.584 96.4036 22.04 98.5796 22.04C100.724 22.04 102.676 22.568 104.436 23.624C106.196 24.68 107.572 26.136 108.564 27.992C109.588 29.848 110.1 31.96 110.1 34.328V34.568ZM98.5796 22.952C96.6596 22.952 94.9156 23.416 93.3476 24.344C91.7796 25.272 90.5156 26.552 89.5556 28.184C88.6276 29.816 88.1156 31.64 88.0196 33.656H109.188C109.092 31.64 108.564 29.816 107.604 28.184C106.644 26.552 105.38 25.272 103.812 24.344C102.244 23.416 100.5 22.952 98.5796 22.952ZM145.424 47L145.328 31.688L138.031 43.976H133.04L125.744 32.216V47H115.424V13.4H124.736L135.68 31.304L146.336 13.4H155.648L155.744 47H145.424ZM172.644 20.264C177.252 20.264 180.772 21.304 183.204 23.384C185.636 25.432 186.852 28.6 186.852 32.888V47H176.772V43.544C175.524 46.168 173.044 47.48 169.332 47.48C167.252 47.48 165.476 47.128 164.004 46.424C162.564 45.688 161.46 44.712 160.692 43.496C159.956 42.248 159.588 40.856 159.588 39.32C159.588 36.728 160.58 34.76 162.564 33.416C164.548 32.072 167.556 31.4 171.588 31.4H175.956C175.604 29.352 173.956 28.328 171.012 28.328C169.828 28.328 168.628 28.52 167.412 28.904C166.196 29.256 165.156 29.752 164.292 30.392L160.836 23.24C162.34 22.312 164.148 21.592 166.26 21.08C168.404 20.536 170.532 20.264 172.644 20.264ZM172.596 40.952C173.364 40.952 174.052 40.744 174.66 40.328C175.268 39.912 175.716 39.288 176.004 38.456V36.632H173.316C171.108 36.632 170.004 37.368 170.004 38.84C170.004 39.448 170.228 39.96 170.676 40.376C171.156 40.76 171.796 40.952 172.596 40.952ZM201.813 47.48C199.573 47.48 197.365 47.24 195.189 46.76C193.013 46.28 191.253 45.656 189.909 44.888L192.885 37.736C194.101 38.472 195.541 39.048 197.205 39.464C198.869 39.88 200.485 40.088 202.053 40.088C203.301 40.088 204.165 39.992 204.645 39.8C205.157 39.576 205.413 39.256 205.413 38.84C205.413 38.424 205.093 38.136 204.453 37.976C203.845 37.816 202.837 37.656 201.429 37.496C199.285 37.24 197.461 36.92 195.957 36.536C194.453 36.12 193.125 35.336 191.973 34.184C190.853 33.032 190.293 31.384 190.293 29.24C190.293 27.544 190.805 26.024 191.829 24.68C192.853 23.336 194.373 22.264 196.389 21.464C198.437 20.664 200.885 20.264 203.733 20.264C205.717 20.264 207.653 20.456 209.541 20.84C211.461 21.192 213.093 21.72 214.437 22.424L211.461 29.576C209.157 28.296 206.629 27.656 203.877 27.656C201.509 27.656 200.325 28.072 200.325 28.904C200.325 29.32 200.645 29.624 201.285 29.816C201.925 29.976 202.933 30.136 204.309 30.296C206.453 30.552 208.261 30.888 209.733 31.304C211.237 31.72 212.549 32.504 213.669 33.656C214.821 34.808 215.397 36.456 215.397 38.6C215.397 40.232 214.885 41.72 213.861 43.064C212.837 44.408 211.301 45.48 209.253 46.28C207.205 47.08 204.725 47.48 201.813 47.48ZM238.025 46.088C236.393 47.016 234.169 47.48 231.353 47.48C227.673 47.48 224.841 46.6 222.857 44.84C220.873 43.048 219.881 40.376 219.881 36.824V30.104H216.281V22.184H219.881V14.84H230.729V22.184H236.105V30.104H230.729V36.728C230.729 37.528 230.937 38.152 231.353 38.6C231.769 39.048 232.313 39.272 232.985 39.272C233.913 39.272 234.729 39.032 235.433 38.552L238.025 46.088ZM267.992 33.848C267.992 34.008 267.944 34.856 267.848 36.392H249.608C249.992 37.384 250.632 38.152 251.528 38.696C252.424 39.208 253.544 39.464 254.888 39.464C256.04 39.464 257 39.32 257.768 39.032C258.568 38.744 259.432 38.248 260.36 37.544L266.024 43.256C263.464 46.072 259.64 47.48 254.552 47.48C251.384 47.48 248.6 46.904 246.2 45.752C243.8 44.568 241.944 42.936 240.632 40.856C239.32 38.776 238.664 36.44 238.664 33.848C238.664 31.224 239.304 28.888 240.584 26.84C241.896 24.76 243.672 23.144 245.912 21.992C248.184 20.84 250.728 20.264 253.544 20.264C256.2 20.264 258.616 20.792 260.792 21.848C263 22.904 264.744 24.456 266.024 26.504C267.336 28.552 267.992 31 267.992 33.848ZM253.64 27.656C252.52 27.656 251.592 27.96 250.856 28.568C250.12 29.176 249.64 30.04 249.416 31.16H257.864C257.64 30.072 257.16 29.224 256.424 28.616C255.688 27.976 254.76 27.656 253.64 27.656ZM281.736 23.576C283.656 21.368 286.488 20.264 290.232 20.264V29.864C289.368 29.736 288.568 29.672 287.832 29.672C284.12 29.672 282.264 31.56 282.264 35.336V47H271.416V20.744H281.736V23.576Z" fill="#FBF107"/>
<path d="M42.645 21.7101C36.75 22.8351 32.37 27.4551 31.605 33.3801L31.5 34.1001H36.345H41.19L41.385 33.5601C41.64 32.8401 42.495 31.9101 43.26 31.5051C44.13 31.0551 45.87 31.0551 46.74 31.5051C47.505 31.9101 48.36 32.8401 48.615 33.5601L48.81 34.1001H53.655H58.5L58.395 33.3801C57.675 27.8601 53.715 23.3301 48.375 21.9501C46.83 21.5451 44.115 21.4251 42.645 21.7101Z" fill="#FBF107"/>
<path d="M43.9799 33.2001C43.7099 33.3651 43.3649 33.7101 43.1999 33.9801C42.1349 35.7351 44.2649 37.8651 46.0199 36.8001C46.6499 36.4101 47.0999 35.6601 47.0999 35.0001C47.0999 33.9351 46.0649 32.9001 44.9999 32.9001C44.7149 32.9001 44.2499 33.0351 43.9799 33.2001Z" fill="#FBF107"/>
<path d="M31.605 36.605C32.31 42.125 36.24 46.61 41.625 48.065C42.6 48.335 43.23 48.395 45 48.395C46.77 48.395 47.4 48.335 48.375 48.065C53.805 46.595 57.585 42.245 58.41 36.53L58.5 35.9H53.655H48.81L48.615 36.44C48.36 37.16 47.505 38.09 46.74 38.495C46.26 38.75 45.87 38.825 45 38.825C44.13 38.825 43.74 38.75 43.26 38.495C42.495 38.09 41.64 37.16 41.385 36.44L41.19 35.9H36.345H31.5L31.605 36.605Z" fill="#FBF107"/>
</svg>
